# xmcd
#
# Track frame offsets: 
#        150
#        19992
#        34522
#        47295
#        60445
#        76035
#        92990
#        108167
#        126580
#        150490
#        166537
#        183145
#
# Disc length: 2633 seconds
#
# Revision: 4
# Processed by: cddbd v1.5.2PL0 Copyright (c) Steve Scherf et al.
# Submitted via: ExactAudioCopy v0.99pb4
#
DISCID=7e0a470c
DTITLE=Tracy Nelson - Ebony And Irony
DYEAR=2001
DGENRE=Blues
TTITLE0=You Will Find Me There (Will Jennings, M. Berg)
TTITLE1=Strongest Weakness (Bekka Bramlet)
TTITLE2=Got A New Truck (Marcia Ball, Tracy Nelson)
TTITLE3=If You Knew How Much (David Egan)
TTITLE4=Last Chance (Alice Newman)
TTITLE5=How Much Truth (Mose Allison)
TTITLE6=Still Not Out Of The Woods (G. Nicholson)
TTITLE7=I Must Be Crazy (Tracy Nelson)
TTITLE8=Even Now (David Egan)
TTITLE9=Quicksand (Terry Hanck)
TTITLE10=Strongest Weakness (Alt. Take) (Bramlet)
TTITLE11=Silent Trail (Roy Rogers)
EXTD=
EXTT0=
EXTT1=
EXTT2=
EXTT3=
EXTT4=
EXTT5=
EXTT6=
EXTT7=
EXTT8=
EXTT9=
EXTT10=
EXTT11=
PLAYORDER=
